<svg xmlns="http://www.w3.org/2000/svg" width="34.818" height="27.615" viewBox="0 0 34.818 27.615">
  <g id="book" transform="translate(-3 -8)">
    <path id="Path_8831" data-name="Path 8831" d="M37.218,12h-1.2V32.411a1.8,1.8,0,0,1-1.8,1.8H26.845a10.205,10.205,0,0,0-4.562,1.081l-1.069.528a1.747,1.747,0,0,1-.8.192,2.5,2.5,0,0,1-1.2-.39c-.162-.09-.354-.192-.6-.306h-.06a10.205,10.205,0,0,0-4.562-1.081H6.6a1.8,1.8,0,0,1-1.8-1.8V12H3.6a.6.6,0,0,0-.6.6V36.613a.6.6,0,0,0,.6.6H37.218a.6.6,0,0,0,.6-.6V12.6A.6.6,0,0,0,37.218,12Z" transform="translate(0 -1.599)" fill="#fff"/>
    <path id="Path_8832" data-name="Path 8832" d="M21.609,9.333A12.649,12.649,0,0,0,16.4,8V21.807a.6.6,0,0,1-.93.5L14,21.327l-1.471.979a.6.6,0,0,1-.93-.5V8h-3a.6.6,0,0,0-.6.6V30.812a.6.6,0,0,0,.6.6h7.372a11.406,11.406,0,0,1,5.1,1.2c.312.132.54.258.732.36V9.429Z" transform="translate(-1.998 0)" fill="#fff"/>
    <path id="Path_8833" data-name="Path 8833" d="M46.207,8H38.835A12.679,12.679,0,0,0,33.2,9.333l-.2.1V32.985l.732-.372a11.406,11.406,0,0,1,5.1-1.2h7.372a.6.6,0,0,0,.6-.6V8.6A.6.6,0,0,0,46.207,8ZM36,18.806h4.881v1.2H36Zm0,4.8h4.881v1.2H36Zm7.2,3.6H36v-1.2h7.2Zm0-4.8H36v-1.2h7.2Zm0-4.8H36V16.4h7.2Z" transform="translate(-11.99 0)" fill="#fff"/>
  </g>
</svg>
