<svg id="ic_google_logo" data-name="ic_google logo" xmlns="http://www.w3.org/2000/svg" width="15.956" height="15.951" viewBox="0 0 15.956 15.951">
  <path id="Path" d="M7.818,1.621A9.2,9.2,0,0,0,7.677,0H0V3.071H4.4A3.688,3.688,0,0,1,2.769,5.495V7.487H5.392A7.711,7.711,0,0,0,7.818,1.621Z" transform="translate(8.139 6.538)" fill="#4285f4"/>
  <path id="Path-2" data-name="Path" d="M7.273,6.447a7.885,7.885,0,0,0,5.4-1.925L10.046,2.529a4.944,4.944,0,0,1-2.769.762A4.863,4.863,0,0,1,2.707,0H0V2.054A8.16,8.16,0,0,0,7.273,6.447Z" transform="translate(0.866 9.504)" fill="#34a853"/>
  <path id="Path-3" data-name="Path" d="M3.569,5.108a4.686,4.686,0,0,1,0-3.053V0H.866a7.838,7.838,0,0,0,0,7.162l2.7-2.054Z" transform="translate(0 4.396)" fill="#fbbc04"/>
  <path id="Path-4" data-name="Path" d="M7.273,3.157a4.473,4.473,0,0,1,3.122,1.2l2.324-2.277A7.912,7.912,0,0,0,7.273,0,8.157,8.157,0,0,0,0,4.4L2.7,6.45A4.858,4.858,0,0,1,7.273,3.157Z" transform="translate(0.866)" fill="#ea4335"/>
</svg>
