<svg xmlns="http://www.w3.org/2000/svg" width="60.35" height="55.323" viewBox="0 0 60.35 55.323">
  <g id="image" transform="translate(0 -0.492)" opacity="0.75">
    <path id="Path_4505" data-name="Path 4505" d="M15.715,174.95a9.415,9.415,0,0,1-8.907-6.415l-.088-.289a9.178,9.178,0,0,1-.435-2.726V148.375l-6.1,20.364a5.711,5.711,0,0,0,4,6.928L43.072,186.08a5.768,5.768,0,0,0,1.449.186,5.607,5.607,0,0,0,5.434-4.112l2.265-7.2Zm0,0" transform="translate(0 -130.451)" fill="#eceff1"/>
    <path id="Path_4506" data-name="Path 4506" d="M135.613,6.15V35.069a5.667,5.667,0,0,1-5.658,5.658H90.978a6.605,6.605,0,0,1-.729-.051,5.626,5.626,0,0,1-4.9-5.155,2.717,2.717,0,0,1-.025-.453V6.15A5.667,5.667,0,0,1,90.978.492h38.977a5.667,5.667,0,0,1,5.658,5.658Zm0,0" transform="translate(-75.263)" fill="#eceff1"/>
    <path id="Path_4507" data-name="Path 4507" d="M159.378,69.521a5.029,5.029,0,1,1-5.029-5.029,5.029,5.029,0,0,1,5.029,5.029Zm0,0" transform="translate(-131.719 -56.456)" fill="#ffc107"/>
    <path id="Path_4508" data-name="Path 4508" d="M172.5,125.3v7.066a5.667,5.667,0,0,1-5.658,5.658H127.862a6.606,6.606,0,0,1-.729-.051l25.9-25.9a4.432,4.432,0,0,1,6.236,0Zm0,0" transform="translate(-112.147 -97.295)" fill="#388e3c"/>
    <path id="Path_4509" data-name="Path 4509" d="M120.866,203.886h-29.7a6.606,6.606,0,0,1-.729-.051,5.626,5.626,0,0,1-4.9-5.155L97.48,186.736a4.432,4.432,0,0,1,6.236,0Zm0,0" transform="translate(-75.453 -163.16)" fill="#4caf50"/>
  </g>
</svg>
