<svg id="logout" xmlns="http://www.w3.org/2000/svg" xmlns:xlink="http://www.w3.org/1999/xlink" width="16.995" height="19.016" viewBox="0 0 16.995 19.016">
  <defs>
    <linearGradient id="linear-gradient" x1="0.5" x2="0.5" y2="1" gradientUnits="objectBoundingBox">
      <stop offset="0" stop-color="#ff057e"/>
      <stop offset="1" stop-color="#fc0"/>
    </linearGradient>
  </defs>
  <path id="logout-2" data-name="logout" d="M35.565,15.987v.948a2.029,2.029,0,0,1-1.037,1.8,2.028,2.028,0,0,1-2.073,0L28.241,16.3A2.029,2.029,0,0,1,27.2,14.5V2.074A2.076,2.076,0,0,1,29.278,0h9.28a2.076,2.076,0,0,1,2.074,2.074v2.62a.681.681,0,1,1-1.362,0V2.074a.713.713,0,0,0-.712-.712H30.426l4.1,2.369a2.029,2.029,0,0,1,1.037,1.8v9.1h2.993a.713.713,0,0,0,.712-.712v-2.3a.681.681,0,1,1,1.362,0v2.3a2.076,2.076,0,0,1-2.074,2.074Zm6.31-7.313-.75.75a.681.681,0,0,0,.963.963L44,8.475a.681.681,0,0,0,0-.963L42.088,5.6a.681.681,0,1,0-.963.963l.75.75H36.851a.681.681,0,0,0,0,1.362h5.024Z" transform="translate(-27.204 0)" fill-rule="evenodd" fill="url(#linear-gradient)"/>
</svg>
