<svg xmlns="http://www.w3.org/2000/svg" width="12.834" height="12.833" viewBox="0 0 12.834 12.833">
  <path id="Path_128" data-name="Path 128" d="M297.8,42.364a.75.75,0,1,0,1.061-1.061ZM296.25,35.5A4.25,4.25,0,0,1,292,39.75v1.5a5.75,5.75,0,0,0,5.75-5.75ZM292,39.75a4.25,4.25,0,0,1-4.25-4.25h-1.5A5.75,5.75,0,0,0,292,41.25Zm-4.25-4.25A4.25,4.25,0,0,1,292,31.25v-1.5a5.75,5.75,0,0,0-5.75,5.75ZM292,31.25a4.25,4.25,0,0,1,4.25,4.25h1.5A5.75,5.75,0,0,0,292,29.75ZM298.864,41.3l-2.792-2.792-1.061,1.061,2.792,2.792Z" transform="translate(-286.25 -29.75)" fill="#232f42" opacity="0.5"/>
</svg>
