<svg xmlns="http://www.w3.org/2000/svg" width="27.615" height="27.615" viewBox="0 0 27.615 27.615">
  <g id="education" transform="translate(0 0)">
    <path id="Path_8820" data-name="Path 8820" d="M395.24,117.159a.809.809,0,0,0,1.618,0v-3.336l-1.618.591Z" transform="translate(-373.923 -107.684)" fill="#fff"/>
    <path id="Path_8821" data-name="Path 8821" d="M87.352,4.611l8.316,3.042a.809.809,0,0,0,.556,0l8.322-3.042a.811.811,0,0,0,0-1.52L96.227.049a.808.808,0,0,0-.556,0L87.352,3.091A.811.811,0,0,0,87.352,4.611Z" transform="translate(-82.142)" fill="#fff"/>
    <path id="Path_8822" data-name="Path 8822" d="M56.682,279.091a2.744,2.744,0,1,0-2.744,2.744A2.747,2.747,0,0,0,56.682,279.091Z" transform="translate(-48.45 -261.442)" fill="#fff"/>
    <path id="Path_8823" data-name="Path 8823" d="M365.164,279.091a2.744,2.744,0,1,0-2.744,2.744A2.747,2.747,0,0,0,365.164,279.091Z" transform="translate(-340.293 -261.442)" fill="#fff"/>
    <path id="Path_8824" data-name="Path 8824" d="M205.12,279.091a2.744,2.744,0,1,0,2.744-2.744A2.747,2.747,0,0,0,205.12,279.091Z" transform="translate(-194.057 -261.442)" fill="#fff"/>
    <path id="Path_8825" data-name="Path 8825" d="M358.558,378.107a5.456,5.456,0,0,0-2.946.86,7.052,7.052,0,0,1,1.728,4.629v1.733h5.9a.809.809,0,0,0,.809-.809V383.6A5.5,5.5,0,0,0,358.558,378.107Z" transform="translate(-336.432 -357.714)" fill="#fff"/>
    <path id="Path_8826" data-name="Path 8826" d="M158.166,378.107a5.515,5.515,0,0,0-5.529,5.488v1.733h11.058V383.6A5.515,5.515,0,0,0,158.166,378.107Z" transform="translate(-144.405 -357.714)" fill="#fff"/>
    <path id="Path_8827" data-name="Path 8827" d="M5.488,378.107A5.5,5.5,0,0,0,0,383.6v.924a.809.809,0,0,0,.809.809H6.614V383.6a7.054,7.054,0,0,1,1.761-4.666,5.456,5.456,0,0,0-2.887-.823Z" transform="translate(0 -357.714)" fill="#fff"/>
    <path id="Path_8828" data-name="Path 8828" d="M170.951,143.731v-2.894l-4.311,1.576a2.428,2.428,0,0,1-1.667,0l-4.3-1.574v2.894a.809.809,0,0,0,.531.76l4.33,1.584a.809.809,0,0,0,.556,0l4.335-1.584A.809.809,0,0,0,170.951,143.731Z" transform="translate(-152.001 -133.241)" fill="#fff"/>
  </g>
</svg>
