<svg id="audience" xmlns="http://www.w3.org/2000/svg" width="60" height="60" viewBox="0 0 60 60">
  <path id="Path_8838" data-name="Path 8838" d="M76.278,42.463H21.261a28.722,28.722,0,0,1,55.017,0Z" transform="translate(-18.769 -19.422)" fill="#93d0fd"/>
  <path id="Path_8839" data-name="Path 8839" d="M251.759,138.947V131.73a1.407,1.407,0,0,1,2.813,0v7.217Z" transform="translate(-222.256 -115.078)" fill="#0066ed"/>
  <path id="Path_8840" data-name="Path 8840" d="M258.871,96.779h-6.526a.586.586,0,0,1-.586-.586v-2.8a2.912,2.912,0,0,1,2.332-2.879l2.444-.478.071,0a1.919,1.919,0,0,1,2.265,1.889Z" transform="translate(-222.256 -79.45)" fill="#0066ed"/>
  <path id="Path_8841" data-name="Path 8841" d="M287.034,95.09H275.847a.587.587,0,0,1-.588-.586V90.493c0-.007,0-.014,0-.021a2.157,2.157,0,0,1,1.771-2.079l.26-.05q.646-.123,1.3-.188h0q.716-.071,1.438-.071a14.581,14.581,0,0,1,2.737.259l2.514.48a2.916,2.916,0,0,1,2.343,2.879v2.8A.588.588,0,0,1,287.034,95.09Z" transform="translate(-243.002 -77.762)" fill="#0077f0"/>
  <path id="Path_8842" data-name="Path 8842" d="M356.759,138.947V131.73a1.407,1.407,0,0,1,2.813,0v7.217Z" transform="translate(-314.951 -115.078)" fill="#0396fd"/>
  <path id="Path_8843" data-name="Path 8843" d="M284.868,117.446v12.616h-9.609V117.446Z" transform="translate(-243.002 -103.683)" fill="#0077f0"/>
  <path id="Path_8844" data-name="Path 8844" d="M288.076,4.314V5.665a4.316,4.316,0,0,1-2.908,4.079V11.21a1.406,1.406,0,1,1-2.812,0V9.745a4.315,4.315,0,0,1-2.908-4.079V4.314a4.314,4.314,0,0,1,8.628,0Z" transform="translate(-246.7 0)" fill="#bb5d4c"/>
  <path id="Path_8845" data-name="Path 8845" d="M310.018,6.113V7.648a4.325,4.325,0,0,1-2.947,3.987,4.2,4.2,0,0,1-2.812-3.987V6.113a3.03,3.03,0,1,1,5.759,0Z" transform="translate(-268.604 -1.891)" fill="#c96e59"/>
  <path id="Path_8846" data-name="Path 8846" d="M251.759,157.5a1.392,1.392,0,0,1,1.376-1.406h5.713a1.407,1.407,0,0,1,0,2.812h-5.713A1.392,1.392,0,0,1,251.759,157.5Z" transform="translate(-222.256 -137.8)" fill="#0066ed"/>
  <path id="Path_8847" data-name="Path 8847" d="M315.264,158.9h-5.713a1.407,1.407,0,0,1,0-2.812h5.713a1.407,1.407,0,0,1,0,2.812Z" transform="translate(-272.061 -137.8)" fill="#0396fd"/>
  <path id="Path_8848" data-name="Path 8848" d="M292.267,152.039a1.419,1.419,0,0,1,.357-.945.579.579,0,0,1,.052-.06l.955-.955a.586.586,0,0,1,.984.553h.205a1.407,1.407,0,0,1,0,2.812h-1.177A1.392,1.392,0,0,1,292.267,152.039Z" transform="translate(-258.017 -132.341)" fill="#bb5d4c"/>
  <path id="Path_8849" data-name="Path 8849" d="M311.584,153.445h-1.177a1.407,1.407,0,0,1,0-2.812h.205a.586.586,0,0,1,.984-.553l.955.955a.583.583,0,0,1,.052.06,1.418,1.418,0,0,1,.357.945A1.392,1.392,0,0,1,311.584,153.445Z" transform="translate(-272.816 -132.341)" fill="#c96e59"/>
  <path id="Path_8850" data-name="Path 8850" d="M28.169,137.5v3.878a1.407,1.407,0,0,1-2.812,0V137.5a1.407,1.407,0,0,1,2.813,0Zm10.9-1.376a1.392,1.392,0,0,0-1.406,1.376v7.288a1.407,1.407,0,0,0,2.813,0V137.5A1.392,1.392,0,0,0,39.067,136.124Z" transform="translate(-22.385 -120.172)" fill="#ffa78f"/>
  <path id="Path_8851" data-name="Path 8851" d="M32.468,96.779H25.356V93.391a2.912,2.912,0,0,1,2.332-2.879l2.444-.478.071,0a1.919,1.919,0,0,1,2.265,1.889Z" transform="translate(-22.385 -79.45)" fill="#ff4343"/>
  <path id="Path_8852" data-name="Path 8852" d="M61.219,95.09H49.444a.587.587,0,0,1-.588-.586V90.493c0-.007,0-.014,0-.021a2.157,2.157,0,0,1,1.771-2.079l.26-.05q.646-.123,1.3-.188h0q.716-.071,1.438-.071a14.582,14.582,0,0,1,2.737.259l2.514.48A2.916,2.916,0,0,1,61.219,91.7v2.8C61.219,94.828,61.544,95.09,61.219,95.09Z" transform="translate(-43.131 -77.762)" fill="#ff5757"/>
  <path id="Path_8853" data-name="Path 8853" d="M58.465,117.446v12.616H48.856V117.446Z" transform="translate(-43.131 -103.683)" fill="#ff5757"/>
  <path id="Path_8854" data-name="Path 8854" d="M63.978,5.064,63.744,6.4A4.314,4.314,0,0,1,60.65,9.8V11.21a1.406,1.406,0,0,1-2.812,0V9.63A4.316,4.316,0,0,1,55.247,4.9l.235-1.331a4.314,4.314,0,0,1,8.5,1.5Z" transform="translate(-48.714 0)" fill="#ffa78f"/>
  <path id="Path_8855" data-name="Path 8855" d="M85.489,9.247l-.266,1.512a4.236,4.236,0,0,1-3.2,3.344.785.785,0,0,1-.621-.11,4.22,4.22,0,0,1-1.837-4.235l.267-1.512a4.224,4.224,0,0,1,3.507-3.413,4.247,4.247,0,0,1,2.148,4.414Z" transform="translate(-70.187 -4.267)" fill="#ffbfab"/>
  <path id="Path_8856" data-name="Path 8856" d="M97.77,163.832A1.172,1.172,0,0,1,96.6,165h-9.57a1.172,1.172,0,1,1,0-2.344H96.6A1.172,1.172,0,0,1,97.77,163.832Z" transform="translate(-75.795 -143.598)" fill="#ececf1"/>
  <path id="Path_8857" data-name="Path 8857" d="M78.644,117.4a.878.878,0,0,1-1.154-.462L75,111.124a.879.879,0,1,1,1.616-.692l2.49,5.811A.879.879,0,0,1,78.644,117.4Z" transform="translate(-66.148 -97.02)" fill="#0066ed"/>
  <path id="Path_8858" data-name="Path 8858" d="M28.59,157.37a1.392,1.392,0,0,1,1.376-1.406h5.713a1.407,1.407,0,0,1,0,2.813H29.966A1.392,1.392,0,0,1,28.59,157.37Z" transform="translate(-25.24 -137.687)" fill="#ffa78f"/>
  <path id="Path_8859" data-name="Path 8859" d="M77.9,151.911a1.419,1.419,0,0,1,.357-.945.582.582,0,0,1,.052-.06l.955-.955a.586.586,0,0,1,.984.553h.205a1.407,1.407,0,0,1,0,2.813H79.28A1.392,1.392,0,0,1,77.9,151.911Z" transform="translate(-68.775 -132.228)" fill="#ffbfab"/>
  <path id="Path_8860" data-name="Path 8860" d="M68.422,199.586v12.832a.586.586,0,0,1-.586.586H39.945v15.527a.586.586,0,0,1-.586.586l-17.919-.626q-.161-.133-.321-.269c-.053-.045-.106.535-.159.49A28.757,28.757,0,0,1,12.12,199H67.836A.586.586,0,0,1,68.422,199.586Z" transform="translate(-9.711 -175.68)" fill="#955b50"/>
  <path id="Path_8861" data-name="Path 8861" d="M60,180.086v2.344a.586.586,0,0,1-.586.586H.586A.586.586,0,0,1,0,182.43v-2.344a.586.586,0,0,1,.586-.586H59.414A.586.586,0,0,1,60,180.086Z" transform="translate(0 -158.465)" fill="#ac695d"/>
  <path id="Path_8862" data-name="Path 8862" d="M334.523,251.056v3.878a1.407,1.407,0,0,1-2.812,0v-3.878a1.407,1.407,0,0,1,2.813,0Zm10.9-1.376a1.392,1.392,0,0,0-1.406,1.376v7.288a1.407,1.407,0,0,0,2.813,0v-7.288A1.392,1.392,0,0,0,345.421,249.68Z" transform="translate(-292.838 -220.421)" fill="#f6a96c"/>
  <path id="Path_8863" data-name="Path 8863" d="M338.823,205.454v4.872h-7.112v-3.388a2.912,2.912,0,0,1,2.332-2.879l2.333-.457.182-.025A1.91,1.91,0,0,1,338.823,205.454Z" transform="translate(-292.839 -179.691)" fill="#00c53b"/>
  <path id="Path_8864" data-name="Path 8864" d="M367.573,211.145h-2.754V220.2H355.21V206.549c0-.007,0-.014,0-.021a2.134,2.134,0,0,1,1.166-1.869c.187-.1.442.151.657.11l.419-.1a6.82,6.82,0,0,1,.89-.12l.224-.022a14.068,14.068,0,0,1,1.414-.03,12.232,12.232,0,0,1,2.513.09l.626.12.676-.1,1.435.274a2.916,2.916,0,0,1,2.343,2.879v3.388Z" transform="translate(-313.584 -180.51)" fill="#4bcd5c"/>
  <path id="Path_8865" data-name="Path 8865" d="M363.888,202.1l1.014-.2q.646-.123,1.3-.188h0q.716-.071,1.438-.071a14.583,14.583,0,0,1,2.737.259l1.079.206-3.366,3.366a.586.586,0,0,1-.829,0Z" transform="translate(-321.245 -178.01)" fill="#ececf1"/>
  <path id="Path_8866" data-name="Path 8866" d="M370.334,118.62l-.235,1.331a4.314,4.314,0,0,1-3.093,3.408v1.407a1.406,1.406,0,0,1-2.812,0v-1.581a4.315,4.315,0,0,1-2.591-4.733l.235-1.331a4.314,4.314,0,0,1,8.5,1.5Z" transform="translate(-319.169 -100.249)" fill="#f6a96c"/>
  <path id="Path_8867" data-name="Path 8867" d="M391.872,122.784l-.28,1.518a4.278,4.278,0,0,1-3.212,3.364.785.785,0,0,1-.621-.11,4.22,4.22,0,0,1-1.837-4.235l.267-1.512a3.029,3.029,0,1,1,5.683.974Z" transform="translate(-340.64 -104.522)" fill="#ffbd86"/>
  <path id="Path_8868" data-name="Path 8868" d="M404.124,277.387a1.172,1.172,0,0,1-1.172,1.172h-9.57a1.172,1.172,0,1,1,0-2.344h9.57A1.172,1.172,0,0,1,404.124,277.387Z" transform="translate(-346.248 -243.846)" fill="#ececf1"/>
  <path id="Path_8869" data-name="Path 8869" d="M385,230.953a.878.878,0,0,1-1.154-.462l-2.49-5.811a.879.879,0,0,1,1.616-.692l2.49,5.811a.879.879,0,0,1-.462,1.154Z" transform="translate(-336.602 -197.269)" fill="#0066ed"/>
  <path id="Path_8870" data-name="Path 8870" d="M334.945,270.926a1.392,1.392,0,0,1,1.376-1.406h5.713a1.407,1.407,0,0,1,0,2.813h-5.713A1.392,1.392,0,0,1,334.945,270.926Z" transform="translate(-295.694 -237.936)" fill="#f6a96c"/>
  <path id="Path_8871" data-name="Path 8871" d="M384.259,265.467a1.419,1.419,0,0,1,.357-.945.578.578,0,0,1,.052-.06l.955-.955a.586.586,0,0,1,.984.553h.205a1.407,1.407,0,0,1,0,2.813h-1.177A1.392,1.392,0,0,1,384.259,265.467Z" transform="translate(-339.229 -232.477)" fill="#ffbd86"/>
  <path id="Path_8872" data-name="Path 8872" d="M126.441,243.494v8.174a1.407,1.407,0,0,1-2.812,0v-8.174a1.407,1.407,0,0,1,2.813,0Zm10.9-1.376a1.392,1.392,0,0,0-1.406,1.376v8.174a1.407,1.407,0,0,0,2.813,0v-8.174A1.392,1.392,0,0,0,137.34,242.118Z" transform="translate(-109.141 -213.745)" fill="#d78878"/>
  <path id="Path_8873" data-name="Path 8873" d="M130.742,210.327H123.63v-3.388a2.912,2.912,0,0,1,2.332-2.879l2.5-.48.013,0a1.91,1.91,0,0,1,2.265,1.877v4.872Z" transform="translate(-109.142 -179.691)" fill="#fa0"/>
  <path id="Path_8874" data-name="Path 8874" d="M159.492,208.646h-2.754V217.7h-9.609V204.049c0-.007,0-.014,0-.021a2.157,2.157,0,0,1,1.771-2.079l.26-.05q.646-.123,1.3-.188h0q.716-.071,1.438-.071a14.583,14.583,0,0,1,2.737.259l2.514.48a2.916,2.916,0,0,1,2.343,2.879v3.388Z" transform="translate(-129.887 -178.01)" fill="#ffb509"/>
  <path id="Path_8875" data-name="Path 8875" d="M159.946,117.869v1.352a4.316,4.316,0,0,1-2.908,4.079v1.465a1.406,1.406,0,0,1-2.813,0V123.3a4.315,4.315,0,0,1-2.908-4.079v-1.352a4.314,4.314,0,1,1,8.628,0Z" transform="translate(-133.585 -100.248)" fill="#c96e59"/>
  <path id="Path_8876" data-name="Path 8876" d="M181.872,119.669V121.2a4.309,4.309,0,0,1-2.929,3.987,4.2,4.2,0,0,1-2.812-3.987v-1.535a4.224,4.224,0,0,1,2.86-3.971A4.244,4.244,0,0,1,181.872,119.669Z" transform="translate(-155.49 -102.14)" fill="#d78878"/>
  <path id="Path_8877" data-name="Path 8877" d="M129.067,274.174h-8.438v-1.592a.586.586,0,0,1,.513-.581l4.785-.6A2.793,2.793,0,0,1,129.067,274.174Z" transform="translate(-106.493 -239.578)" fill="#d4d4da"/>
  <path id="Path_8878" data-name="Path 8878" d="M192.066,272.582v1.592h-8.437a2.793,2.793,0,0,1,3.14-2.772l4.785.6A.586.586,0,0,1,192.066,272.582Z" transform="translate(-162.11 -239.578)" fill="#ececf1"/>
  <path id="Path_8879" data-name="Path 8879" d="M110.227,335.033q-.33-.052-.658-.112c-.109-.02-.218.5-.327.479A28.611,28.611,0,0,1,96,328.961V313.142a.586.586,0,0,1,.586-.586h46.38a28.564,28.564,0,0,1-4.9,11.426c-.055.076-.753.152-.809.228q-.328.446-.672.879H110.813a.586.586,0,0,0-.586.586Z" transform="translate(-84.75 -275.928)" fill="#ac695d"/>
  <path id="Path_8880" data-name="Path 8880" d="M131.919,296.572h-49.2a.586.586,0,0,1-.586-.586v-2.344a.586.586,0,0,1,.586-.586h49.2a.586.586,0,0,1,.586.586v2.344A.586.586,0,0,1,131.919,296.572Z" transform="translate(-72.505 -258.714)" fill="#b97d72"/>
  <path id="Path_8881" data-name="Path 8881" d="M239.442,360.494v8.174a1.407,1.407,0,0,1-2.812,0v-8.174a1.407,1.407,0,0,1,2.813,0Zm10.9-1.376a1.392,1.392,0,0,0-1.406,1.376v8.174a1.407,1.407,0,0,0,2.813,0v-8.174A1.392,1.392,0,0,0,250.34,359.118Z" transform="translate(-208.899 -317.034)" fill="#ffcebf"/>
  <path id="Path_8882" data-name="Path 8882" d="M243.742,327.327H236.63v-3.388a2.912,2.912,0,0,1,2.332-2.879l2.5-.48.013,0a1.91,1.91,0,0,1,2.265,1.877v4.872Z" transform="translate(-208.9 -282.98)" fill="#00a4fb"/>
  <path id="Path_8883" data-name="Path 8883" d="M272.492,325.646h-2.754V334.7h-9.609V321.049c0-.007,0-.014,0-.021a2.157,2.157,0,0,1,1.771-2.079l.26-.05q.646-.123,1.3-.188h0q.716-.071,1.438-.071a14.578,14.578,0,0,1,2.737.259l2.514.48a2.916,2.916,0,0,1,2.343,2.879v3.388Z" transform="translate(-229.645 -281.299)" fill="#49b6fc"/>
  <path id="Path_8884" data-name="Path 8884" d="M272.946,234.869v1.352a4.316,4.316,0,0,1-2.908,4.079v1.465a1.406,1.406,0,1,1-2.812,0V240.3a4.315,4.315,0,0,1-2.908-4.079v-1.352a4.314,4.314,0,0,1,8.628,0Z" transform="translate(-233.343 -203.537)" fill="#ffcebf"/>
  <path id="Path_8885" data-name="Path 8885" d="M294.915,236.606v1.535a4.433,4.433,0,0,1-2.973,4.053,4.2,4.2,0,0,1-2.812-3.987v-1.535a3.032,3.032,0,1,1,5.785-.065Z" transform="translate(-255.248 -205.431)" fill="#ffdfcf"/>
  <path id="Path_8886" data-name="Path 8886" d="M306.891,394.344H295.172a1.172,1.172,0,1,1,0-2.344h11.719a1.172,1.172,0,0,1,0,2.344Z" transform="translate(-259.547 -346.063)" fill="#0066ed"/>
  <path id="Path_8887" data-name="Path 8887" d="M234.981,429.556q-.417.47-.855.922c-.1.1.807.207.705.309A28.765,28.765,0,0,1,209,438.69v-8.548a.586.586,0,0,1,.586-.586Z" transform="translate(-184.508 -379.217)" fill="#b97d72"/>
  <path id="Path_8888" data-name="Path 8888" d="M222.586,413.572H195.715a.586.586,0,0,1-.586-.586v-2.344a.586.586,0,0,1,.586-.586h29.858A28.867,28.867,0,0,1,222.586,413.572Z" transform="translate(-172.262 -362.003)" fill="#c49087"/>
</svg>
