<svg xmlns="http://www.w3.org/2000/svg" width="18.857" height="20" viewBox="0 0 18.857 20">
  <path id="Path_130" data-name="Path 130" d="M1158,41.1a1.424,1.424,0,0,1,.405-1.01l.971-.994a2.075,2.075,0,0,0,.575-1.445l-.009-3.153a7.528,7.528,0,1,1,15.029-.024v3.2a2.046,2.046,0,0,0,.556,1.414l.943,1a1.478,1.478,0,0,1,.387,1,1.373,1.373,0,0,1-1.329,1.414H1171.2a3.778,3.778,0,1,1-7.543,0h-4.337A1.366,1.366,0,0,1,1158,41.1Zm7.543,1.4a1.889,1.889,0,1,0,3.771,0Zm7.543-4.828a4.126,4.126,0,0,0,1.1,2.828h-13.473a4.155,4.155,0,0,0,1.122-2.858l-.009-3.153a5.639,5.639,0,1,1,11.257-.018Z" transform="translate(-1158 -26.5)" fill="#fff" fill-rule="evenodd"/>
</svg>
