<svg xmlns="http://www.w3.org/2000/svg" width="60.842" height="60.842" viewBox="0 0 60.842 60.842">
  <g id="blackboard" transform="translate(-0.001)">
    <path id="Path_8909" data-name="Path 8909" d="M113.588,324.01h5.6l-6.38-21.545h-5.6l3.429,11.579H87.372L90.8,302.465h-5.6l-6.38,21.545h5.6l1.75-5.91h25.667Z" transform="translate(-68.583 -263.168)" fill="#dc8744"/>
    <path id="Path_8910" data-name="Path 8910" d="M0,41.6V3.245A3.245,3.245,0,0,1,3.246,0H57.6a3.245,3.245,0,0,1,3.245,3.245V41.6A3.245,3.245,0,0,1,57.6,44.85H3.246A3.245,3.245,0,0,1,0,41.6Z" transform="translate(0 0)" fill="#fcd462"/>
    <rect id="Rectangle_36" data-name="Rectangle 36" width="52.973" height="36.98" transform="translate(3.936 3.935)" fill="#44c4a1"/>
    <g id="Group_285" data-name="Group 285" transform="translate(3.936 3.935)">
      <rect id="Rectangle_37" data-name="Rectangle 37" width="2.729" height="36.98" fill="#31978c"/>
      <rect id="Rectangle_38" data-name="Rectangle 38" width="2.729" height="36.98" transform="translate(50.243 0.002)" fill="#31978c"/>
    </g>
    <g id="Group_286" data-name="Group 286" transform="translate(3.936 3.935)">
      <path id="Path_8911" data-name="Path 8911" d="M80.434,33.944H33l-2.707-3.655H83.26Z" transform="translate(-30.288 -30.289)" fill="#3ea69b"/>
      <path id="Path_8912" data-name="Path 8912" d="M80.434,286.781H33l-2.707,3.655H83.26Z" transform="translate(-30.288 -253.457)" fill="#3ea69b"/>
    </g>
    <rect id="Rectangle_39" data-name="Rectangle 39" width="14.659" height="3.365" transform="translate(37.373 33.893)" fill="#e1e6e9"/>
  </g>
</svg>
