<svg xmlns="http://www.w3.org/2000/svg" width="49.275" height="60" viewBox="0 0 49.275 60">
  <g id="book_2_" data-name="book (2)" transform="translate(-45.759 0)">
    <path id="Path_8889" data-name="Path 8889" d="M95.034,0V49.246l-43.9,4.79-5.377.587V5.377A5.375,5.375,0,0,1,51.136,0Z" transform="translate(0)" fill="#da4a54"/>
    <path id="Path_8890" data-name="Path 8890" d="M51.136,0V54.036l-5.377.587V5.377A5.375,5.375,0,0,1,51.136,0Z" transform="translate(0 0)" fill="#c32430"/>
    <path id="Path_8891" data-name="Path 8891" d="M95.035,420.235h-43.9a5.377,5.377,0,1,0,0,10.754h43.9V427.97l-2.188-2.359,2.188-2.359Z" transform="translate(-0.001 -370.989)" fill="#c32430"/>
    <path id="Path_8892" data-name="Path 8892" d="M73.873,450.707a2.359,2.359,0,1,1,0-4.717h43.9v4.718Z" transform="translate(-22.737 -393.725)" fill="#dfeaef"/>
    <path id="Path_8893" data-name="Path 8893" d="M152.087,11.658l-3.909-4.012-3.909,4.012V0h7.818Z" transform="translate(-86.966 0)" fill="#f4dd45"/>
    <path id="Path_8894" data-name="Path 8894" d="M170.881,128.242H150.036a3.784,3.784,0,0,0-3.784,3.784v11.547a3.784,3.784,0,0,0,3.784,3.784h20.845a3.784,3.784,0,0,0,3.784-3.784V132.026A3.784,3.784,0,0,0,170.881,128.242Z" transform="translate(-88.716 -113.214)" fill="#dfeaef"/>
    <path id="Path_8895" data-name="Path 8895" d="M164.059,141.442H143.215a4.7,4.7,0,0,1-4.69-4.69V125.205a4.7,4.7,0,0,1,4.69-4.689h20.845a4.7,4.7,0,0,1,4.69,4.689v11.547A4.7,4.7,0,0,1,164.059,141.442Zm-20.845-19.115a2.882,2.882,0,0,0-2.879,2.879v11.547a2.882,2.882,0,0,0,2.879,2.879h20.845a2.882,2.882,0,0,0,2.879-2.879V125.205a2.882,2.882,0,0,0-2.879-2.879Z" transform="translate(-81.895 -106.393)" fill="#c32430"/>
    <g id="Group_282" data-name="Group 282" transform="translate(62.332 21.282)">
      <path id="Path_8896" data-name="Path 8896" d="M205.1,183.416H188.088a.905.905,0,0,1,0-1.811H205.1a.905.905,0,0,1,0,1.811Z" transform="translate(-187.183 -181.605)" fill="#665e66"/>
      <path id="Path_8897" data-name="Path 8897" d="M205.1,224.352H188.088a.905.905,0,0,1,0-1.811H205.1a.905.905,0,0,1,0,1.811Z" transform="translate(-187.183 -217.744)" fill="#665e66"/>
    </g>
  </g>
</svg>
