<svg xmlns="http://www.w3.org/2000/svg" width="25.825" height="25.825" viewBox="0 0 25.825 25.825">
  <g id="Apps" transform="translate(-5.333 -5.333)">
    <path id="Vector" d="M3.228,0A3.228,3.228,0,0,0,0,3.228V8.07A3.228,3.228,0,0,0,3.228,11.3H8.07A3.228,3.228,0,0,0,11.3,8.07V3.228A3.228,3.228,0,0,0,8.07,0ZM17.755,0a3.228,3.228,0,0,0-3.228,3.228V8.07A3.228,3.228,0,0,0,17.755,11.3H22.6A3.228,3.228,0,0,0,25.825,8.07V3.228A3.228,3.228,0,0,0,22.6,0ZM0,17.755a3.228,3.228,0,0,1,3.228-3.228H8.07A3.228,3.228,0,0,1,11.3,17.755V22.6A3.228,3.228,0,0,1,8.07,25.825H3.228A3.228,3.228,0,0,1,0,22.6Zm17.755-3.228a3.228,3.228,0,0,0-3.228,3.228V22.6a3.228,3.228,0,0,0,3.228,3.228H22.6A3.228,3.228,0,0,0,25.825,22.6V17.755A3.228,3.228,0,0,0,22.6,14.527Z" transform="translate(5.333 5.333)" fill="#fff"/>
  </g>
</svg>
