<svg id="Layer_x0020_1" xmlns="http://www.w3.org/2000/svg" width="26.538" height="26.534" viewBox="0 0 26.538 26.534">
  <path id="Path_8834" data-name="Path 8834" fill="#fff" fill-rule="evenodd"/>
  <path id="Path_8835" data-name="Path 8835" d="M16.437,28.527H12.1a.357.357,0,0,1-.358-.317l-.515-3.979a9.356,9.356,0,0,1-1.15-.481L6.9,26.205a.36.36,0,0,1-.478-.03L3.351,23.107a.364.364,0,0,1-.03-.478l2.456-3.176A9.236,9.236,0,0,1,5.3,18.3l-3.986-.515A.356.356,0,0,1,1,17.434V13.1a.357.357,0,0,1,.314-.358L5.3,12.231a9.738,9.738,0,0,1,.478-1.153L3.322,7.9a.356.356,0,0,1,.03-.478L6.42,4.351a.368.368,0,0,1,.478-.03l3.18,2.456a9.236,9.236,0,0,1,1.15-.478l.515-3.983A.357.357,0,0,1,12.1,2h4.337a.356.356,0,0,1,.355.317L17.307,6.3a9.006,9.006,0,0,1,1.15.478l3.18-2.456a.364.364,0,0,1,.478.03L25.183,7.42a.36.36,0,0,1,.03.478l-2.456,3.18a9.149,9.149,0,0,1,.478,1.153l3.986.508a.357.357,0,0,1,.314.358v4.337a.356.356,0,0,1-.314.355l-3.986.515a9.235,9.235,0,0,1-.478,1.15l2.456,3.176a.356.356,0,0,1-.03.478l-3.068,3.068a.368.368,0,0,1-.478.03l-3.18-2.456a9.605,9.605,0,0,1-1.15.481l-.515,3.979A.35.35,0,0,1,16.437,28.527Zm2.881-12.9a.361.361,0,0,1-.366-.362,4.731,4.731,0,0,0-4.725-4.725.362.362,0,1,1,0-.724,5.459,5.459,0,0,1,5.453,5.449A.36.36,0,0,1,19.319,15.627Zm-5.05,5.084a5.452,5.452,0,0,1-5.446-5.446.362.362,0,0,1,.724,0,4.725,4.725,0,0,0,4.722,4.722.362.362,0,1,1,0,.724Zm-.381-2.583a1.428,1.428,0,0,1-1.452-1.321.364.364,0,0,1,.72-.1c.041.332.2.761,1.067.691a1.065,1.065,0,0,0,.75-.291.707.707,0,0,0,.108-.526.926.926,0,0,0-.22-.519,2.637,2.637,0,0,0-.758-.545,3.387,3.387,0,0,1-.959-.705,1.693,1.693,0,0,1-.4-.9,1.37,1.37,0,0,1,.328-1.161,1.556,1.556,0,0,1,.81-.429v-.541a.362.362,0,1,1,.724,0v.474a1.679,1.679,0,0,1,.911.284,1.454,1.454,0,0,1,.593,1.045.367.367,0,0,1-.317.407.359.359,0,0,1-.4-.317.736.736,0,0,0-.291-.545,1.19,1.19,0,0,0-.776-.146,1.158,1.158,0,0,0-.728.265.652.652,0,0,0-.134.56.993.993,0,0,0,.224.519,2.614,2.614,0,0,0,.754.537,3.313,3.313,0,0,1,.959.713,1.653,1.653,0,0,1,.4.9,1.394,1.394,0,0,1-.265,1.082,1.538,1.538,0,0,1-.922.511v.668a.366.366,0,0,1-.362.366.361.361,0,0,1-.362-.366Zm.381,4.371a7.235,7.235,0,1,1,7.241-7.234A7.243,7.243,0,0,1,14.269,22.5Zm0-13.75a6.511,6.511,0,1,0,6.513,6.513A6.521,6.521,0,0,0,14.269,8.748Z" transform="translate(-0.996 -1.993)" fill="#fff" fill-rule="evenodd"/>
</svg>
