<svg xmlns="http://www.w3.org/2000/svg" width="35.862" height="35.873" viewBox="0 0 35.862 35.873">
  <g id="Group_3754" data-name="Group 3754" transform="translate(-409.963 -248.908)">
    <path id="Op_component_1" data-name="Op component 1" d="M520.141,296.47h-33.62a1.121,1.121,0,0,0-1.121,1.121v4.484a1.121,1.121,0,0,0,1.121,1.121h33.62a1.121,1.121,0,0,0,1.121-1.121v-4.484A1.121,1.121,0,0,0,520.141,296.47Z" transform="translate(-75.437 -47.563)" fill="#fff"/>
    <path id="Op_component_2" data-name="Op component 2" d="M488.6,309.274v25.783a1.121,1.121,0,0,0,1.676.975l7.242-4.141,6.148,4.1a1.13,1.13,0,0,0,1.244,0l6.148-4.1,7.242,4.141a1.128,1.128,0,0,0,.558.146,1.118,1.118,0,0,0,1.121-1.121V309.274Zm14.569,17.936H494.2a1.121,1.121,0,0,1,0-2.242h8.965a1.121,1.121,0,0,1,0,2.242Zm0-6.726H494.2a1.121,1.121,0,0,1,0-2.242h8.965a1.121,1.121,0,0,1,0,2.242Zm0-6.726H494.2a1.121,1.121,0,0,1,0-2.242h8.965a1.121,1.121,0,0,1,0,2.242Zm8.965,13.452h-2.241a1.121,1.121,0,0,1,0-2.242h2.241a1.121,1.121,0,0,1,0,2.242Zm0-6.726h-2.241a1.121,1.121,0,0,1,0-2.242h2.241a1.121,1.121,0,0,1,0,2.242Zm0-6.726h-2.241a1.121,1.121,0,0,1,0-2.242h2.241a1.121,1.121,0,0,1,0,2.242Z" transform="translate(-76.396 -51.398)" fill="#fff"/>
  </g>
</svg>
