<svg xmlns="http://www.w3.org/2000/svg" width="16" height="13.182" viewBox="0 0 16 13.182">
  <g id="Group_5725" data-name="Group 5725" transform="translate(-1775 -45)">
    <path id="Path" d="M.818,0H7.909c.452,0,.818.672.818,1.5S8.361,3,7.909,3H.818C.367,3,0,2.328,0,1.5S.367,0,.818,0" transform="translate(1778.637 55.182)" fill="#161e2a"/>
    <path id="Path-2" data-name="Path" d="M1.227,0H11.864a1.385,1.385,0,0,1,1.227,1.5A1.385,1.385,0,0,1,11.864,3H1.227A1.385,1.385,0,0,1,0,1.5,1.385,1.385,0,0,1,1.227,0" transform="translate(1776.455 50.091)" fill="#161e2a"/>
    <path id="Fill_1" data-name="Fill 1" d="M1.5,0h13a1.5,1.5,0,0,1,0,3H1.5a1.5,1.5,0,0,1,0-3" transform="translate(1775 45)" fill="#161e2a"/>
  </g>
</svg>
