<svg xmlns="http://www.w3.org/2000/svg" width="25.846" height="35.862" viewBox="0 0 25.846 35.862">
  <path id="Icon" d="M923.557,295.4a1.182,1.182,0,1,1-2.363,0h-2.339a1.182,1.182,0,1,1-2.363,0h-2.338a1.182,1.182,0,1,1-2.363,0h-2.338a1.182,1.182,0,1,1-2.363,0h-2.338a1.182,1.182,0,1,1-2.363,0H900.05v35.862h2.338a1.182,1.182,0,1,1,2.363,0h2.338a1.182,1.182,0,1,1,2.363,0h2.338a1.182,1.182,0,1,1,2.363,0h2.338a1.182,1.182,0,1,1,2.363,0h2.338a1.182,1.182,0,1,1,2.363,0H925.9V295.4Zm-18.015,7.171h9.4v2.339h-9.4Zm0,5.212h9.4v2.339h-9.4Zm0,7.551V313h9.4v2.339Zm14.861,8.459h-9.781v-2.339H920.4Zm0-8.459H917.3V313H920.4Zm0-5.212H917.3v-2.339H920.4Zm0-5.212H917.3V302.57H920.4Z" transform="translate(-900.05 -295.4)" fill="#fff"/>
</svg>
