<svg id="money" xmlns="http://www.w3.org/2000/svg" width="51.58" height="51.58" viewBox="0 0 51.58 51.58">
  <path id="Path_8898" data-name="Path 8898" d="M197.622,0a16.623,16.623,0,1,0,16.723,16.622A16.652,16.652,0,0,0,197.622,0Z" transform="translate(-162.766)" fill="#fedb41"/>
  <path id="Path_8899" data-name="Path 8899" d="M362.723,16.622A16.738,16.738,0,0,1,346,33.245V0A16.738,16.738,0,0,1,362.723,16.622Z" transform="translate(-311.143)" fill="#fc3"/>
  <path id="Path_8900" data-name="Path 8900" d="M238.3,43.6A13.651,13.651,0,1,1,224.6,30,13.707,13.707,0,0,1,238.3,43.6Z" transform="translate(-189.744 -26.978)" fill="#fea832"/>
  <path id="Path_8901" data-name="Path 8901" d="M359.7,43.6A13.707,13.707,0,0,1,346,57.2V30A13.707,13.707,0,0,1,359.7,43.6Z" transform="translate(-311.143 -26.978)" fill="#fe9923"/>
  <path id="Path_8902" data-name="Path 8902" d="M309.306,73.6a4.569,4.569,0,0,1-2.992,4.261h-.03v1.783a1.511,1.511,0,0,1-3.022,0V77.861a6,6,0,0,1-2.75-1.964,1.5,1.5,0,0,1,2.3-1.934,2.731,2.731,0,0,0,1.965,1.148,1.531,1.531,0,0,0,.514-.091,1.511,1.511,0,0,0-.514-2.931,4.527,4.527,0,0,1-1.753-8.7c.061-.03.151-.03.242-.061V61.511a1.511,1.511,0,1,1,3.022,0v1.813a5.944,5.944,0,0,1,2.237,1.33A1.518,1.518,0,0,1,306.4,66.83a2.372,2.372,0,0,0-1.632-.786,1.228,1.228,0,0,0-.574.121,1.507,1.507,0,0,0,.574,2.9A4.527,4.527,0,0,1,309.306,73.6Z" transform="translate(-269.916 -53.956)" fill="#fedb41"/>
  <g id="Group_283" data-name="Group 283" transform="translate(34.857 6.044)">
    <path id="Path_8903" data-name="Path 8903" d="M350.533,154.533a4.569,4.569,0,0,1-2.992,4.261h-.03v1.783A1.5,1.5,0,0,1,346,162.089v-6.044a1.532,1.532,0,0,0,.514-.091,1.511,1.511,0,0,0-.514-2.931V150A4.527,4.527,0,0,1,350.533,154.533Z" transform="translate(-346 -140.933)" fill="#fc3"/>
    <path id="Path_8904" data-name="Path 8904" d="M347.632,66.83A2.372,2.372,0,0,0,346,66.044V60a1.5,1.5,0,0,1,1.511,1.511v1.813a5.945,5.945,0,0,1,2.236,1.33,1.518,1.518,0,0,1-2.116,2.176Z" transform="translate(-346 -60)" fill="#fc3"/>
  </g>
  <path id="Path_8905" data-name="Path 8905" d="M116.319,304.034l-7.354,9.671a10.592,10.592,0,0,1-8.462,4.231H87.023a35.006,35.006,0,0,1-13.691-2.811L73,305.817c2.025-9.7,12.059-12.119,17.861-7.012a4.194,4.194,0,0,0,2.085.937,1.956,1.956,0,0,0,.574.061h5.47a2.92,2.92,0,0,1,1.511.423,3.012,3.012,0,0,1,1.511,2.569v.03a2.974,2.974,0,0,1-1.511,2.6,2.92,2.92,0,0,1-1.511.423H89.773a1.511,1.511,0,1,0,0,3.022H101.5a4.486,4.486,0,0,0,3.536-1.692L112,299.259a3.005,3.005,0,0,1,4.08-.3,2.767,2.767,0,0,1,.7.756A3.983,3.983,0,0,1,116.319,304.034Z" transform="translate(-65.646 -266.357)" fill="#fec478"/>
  <path id="Path_8906" data-name="Path 8906" d="M12.19,306.533A4.538,4.538,0,0,0,7.656,302H1.511A1.51,1.51,0,0,0,0,303.511v18.133a1.51,1.51,0,0,0,1.511,1.511H7.656a4.538,4.538,0,0,0,4.533-4.533Z" transform="translate(0 -271.576)" fill="#17ace8"/>
  <g id="Group_284" data-name="Group 284" transform="translate(34.856 31.94)">
    <path id="Path_8907" data-name="Path 8907" d="M346,341.4v-5.2a3.012,3.012,0,0,1,1.511,2.569v.03A2.974,2.974,0,0,1,346,341.4Z" transform="translate(-346 -334.27)" fill="#feb756"/>
    <path id="Path_8908" data-name="Path 8908" d="M361.815,322.783l-7.354,9.671A10.592,10.592,0,0,1,346,336.685v-9.067h1a4.486,4.486,0,0,0,3.536-1.692l6.961-7.918a3.005,3.005,0,0,1,4.08-.3,2.766,2.766,0,0,1,.695.756A3.982,3.982,0,0,1,361.815,322.783Z" transform="translate(-345.999 -317.045)" fill="#feb756"/>
  </g>
</svg>
