<svg xmlns="http://www.w3.org/2000/svg" width="31.519" height="31.001" viewBox="0 0 31.519 31.001">
  <path id="Op_component_1" data-name="Op component 1" d="M1334.019,307.456a2.1,2.1,0,0,0-2.1-2.087H1304.6a2.081,2.081,0,0,0-.525,4.1v1.639a.523.523,0,0,1,.525-.522h1.051a.522.522,0,1,1,0,1.043H1304.6a.523.523,0,0,1-.525-.522v23.7l1.576-1.565,3.152,3.131,3.152-3.131,3.152,3.131,3.152-3.131,3.152,3.131,3.152-3.131,3.152,3.131,3.152-3.131,1.576,1.565v-23.7a.523.523,0,0,1-.525.522h-1.051a.522.522,0,1,1,0-1.043h1.051a.523.523,0,0,1,.525.522v-1.639A2.087,2.087,0,0,0,1334.019,307.456Zm-15.234,15.132a.522.522,0,1,1,0,1.043h-1.051a.522.522,0,1,1,0-1.043Zm-1.051-3.131a.535.535,0,0,1,.152-.37.553.553,0,0,1,.746,0,.527.527,0,0,1,0,.741.535.535,0,0,1-.746,0A.537.537,0,0,1,1317.734,319.457Zm0-3.131a.522.522,0,1,1,0-1.044h7.88a.522.522,0,1,1,0,1.044Zm.97-5.218a.523.523,0,0,1,.525-.522h1.939a.522.522,0,1,1,0,1.043h-1.939A.523.523,0,0,1,1318.7,311.108Zm3.88,0a.523.523,0,0,1,.525-.522h1.94a.522.522,0,1,1,0,1.043h-1.94A.523.523,0,0,1,1322.583,311.108Zm-15.517,0a.523.523,0,0,1,.525-.522h1.939a.522.522,0,1,1,0,1.043h-1.939A.523.523,0,0,1,1307.066,311.108Zm5.94,8.348a.523.523,0,0,1-.525-.522,1.564,1.564,0,0,0-1.051-1.469V320.3l1.171.9a1.9,1.9,0,0,1,.726,1.3,1.788,1.788,0,0,1-.417,1.359,2.625,2.625,0,0,1-1.481.87v.46a.525.525,0,0,1-1.051,0v-.458a2.618,2.618,0,0,1-2.1-2.556.525.525,0,0,1,1.051,0,1.564,1.564,0,0,0,1.051,1.469v-2.838l-1.171-.9a1.9,1.9,0,0,1-.726-1.3,1.786,1.786,0,0,1,.417-1.358,2.625,2.625,0,0,1,1.48-.87V315.8a.525.525,0,0,1,1.051,0v.575a2.618,2.618,0,0,1,2.1,2.556A.523.523,0,0,1,1313.006,319.457Zm.4-7.827h-1.939a.522.522,0,1,1,0-1.043h1.939a.522.522,0,1,1,0,1.043Zm1.414-.522a.523.523,0,0,1,.525-.522h1.94a.522.522,0,1,1,0,1.043h-1.94A.523.523,0,0,1,1314.824,311.108Zm10.79,16.175h-7.88a.522.522,0,1,1,0-1.044h7.88a.522.522,0,1,1,0,1.044Zm-5.253-4.174a.546.546,0,0,1,.152-.37.553.553,0,0,1,.746,0,.526.526,0,0,1,.152.37.536.536,0,0,1-.152.371.536.536,0,0,1-.746,0A.547.547,0,0,1,1320.361,323.109Zm8.253,4.023a.535.535,0,0,1-.746,0,.546.546,0,0,1-.153-.37.535.535,0,0,1,.153-.371.553.553,0,0,1,.746,0,.535.535,0,0,1,.152.371A.547.547,0,0,1,1328.614,327.132Zm-.373-3.5h-5.253a.522.522,0,1,1,0-1.043h5.253a.522.522,0,1,1,0,1.043Zm0-3.652h-7.88a.522.522,0,1,1,0-1.043h7.88a.522.522,0,1,1,0,1.043Zm.373-3.8a.545.545,0,0,1-.373.151.554.554,0,0,1-.373-.151.546.546,0,0,1-.153-.37.535.535,0,0,1,.153-.37.553.553,0,0,1,.746,0,.527.527,0,0,1,0,.741Zm.314-4.545h-1.94a.522.522,0,1,1,0-1.043h1.94a.522.522,0,1,1,0,1.043Zm3.515-3.271v-1.425h-28.367v1.425a1.042,1.042,0,0,1,.525-1.947h27.317a1.042,1.042,0,0,1,.525,1.947Z" transform="translate(-1302.5 -305.369)" fill="#fff"/>
</svg>
