<svg xmlns="http://www.w3.org/2000/svg" width="26.616" height="25.202" viewBox="0 0 26.616 25.202">
  <path id="Path_8819" data-name="Path 8819" d="M26.028,10.708a3.478,3.478,0,0,1-2.741-4.7A1.632,1.632,0,0,0,22.8,4.169a13.086,13.086,0,0,0-3.9-2.262,1.641,1.641,0,0,0-1.854.515,3.469,3.469,0,0,1-5.465,0,1.641,1.641,0,0,0-1.854-.515A13.148,13.148,0,0,0,6.084,3.947a1.65,1.65,0,0,0-.515,1.89,3.46,3.46,0,0,1-2.883,4.755,1.641,1.641,0,0,0-1.437,1.322A12.545,12.545,0,0,0,1,14.4a12.7,12.7,0,0,0,.169,2.085,1.641,1.641,0,0,0,1.446,1.375,3.46,3.46,0,0,1,2.821,4.888,1.615,1.615,0,0,0,.452,1.934,13.184,13.184,0,0,0,3.868,2.227,1.774,1.774,0,0,0,.559.1,1.632,1.632,0,0,0,1.331-.692,3.433,3.433,0,0,1,2.839-1.49,3.478,3.478,0,0,1,2.786,1.4,1.632,1.632,0,0,0,1.916.541,13.308,13.308,0,0,0,3.549-2.12,1.641,1.641,0,0,0,.479-1.872,3.46,3.46,0,0,1,2.777-4.782,1.641,1.641,0,0,0,1.393-1.349,12.865,12.865,0,0,0,.231-2.245,12.739,12.739,0,0,0-.222-2.372,1.624,1.624,0,0,0-1.366-1.319ZM18.744,14.4a4.436,4.436,0,1,1-4.436-4.436A4.436,4.436,0,0,1,18.744,14.4Z" transform="translate(-1 -1.804)" fill="#fff"/>
</svg>
