<svg xmlns="http://www.w3.org/2000/svg" width="27.19" height="24.559" viewBox="0 0 27.19 24.559">
  <path id="Vector" d="M22.366,2.166H21.059V1.316a1.316,1.316,0,0,0-2.631,0v.851H14.911V1.316a1.316,1.316,0,0,0-2.631,0v.851H8.762V1.316a1.316,1.316,0,0,0-2.631,0v.851H4.824A4.827,4.827,0,0,0,0,6.99V19.735a4.833,4.833,0,0,0,4.824,4.824H22.366a4.833,4.833,0,0,0,4.824-4.824V6.99A4.827,4.827,0,0,0,22.366,2.166Zm2.193,6.271H2.631V6.99A2.194,2.194,0,0,1,4.824,4.8H6.131v.8a1.316,1.316,0,1,0,2.631,0V4.8h3.517v.8a1.316,1.316,0,0,0,2.631,0V4.8h3.517v.8a1.316,1.316,0,1,0,2.631,0V4.8h1.307A2.194,2.194,0,0,1,24.559,6.99Z" fill="#fff"/>
</svg>
